<svg xmlns="http://www.w3.org/2000/svg" xmlns:xlink="http://www.w3.org/1999/xlink" contentStyleType="text/css" data-diagram-type="DESCRIPTION" height="1310px" preserveAspectRatio="none" style="width:2310px;height:1310px;background:#FFFFFF;" version="1.1" viewBox="0 0 2310 1310" width="2310px" zoomAndPan="magnify"><?plantuml 1.2026.4beta2?><defs/><g><!--cluster Web--><g class="cluster" data-qualified-name="Web" data-source-line="4" id="ent0002"><rect fill="none" height="327.5667" rx="4.1667" ry="4.1667" style="stroke:#181818;stroke-width:1.6667;" width="1001.6667" x="1285" y="11.6667"/><text fill="#000000" font-family="'Noto Sans CJK SC'" font-size="23.3333" font-weight="700" lengthAdjust="spacing" textLength="214.5959" x="1678.5354" y="42.0665">H5 &#21069;&#31471; Vue3 + Vite</text></g><!--cluster Api--><g class="cluster" data-qualified-name="Api" data-source-line="11" id="ent0008"><rect fill="none" height="631.3667" rx="4.1667" ry="4.1667" style="stroke:#181818;stroke-width:1.6667;" width="908.3333" x="838.3333" y="425.9"/><text fill="#000000" font-family="'Noto Sans CJK SC'" font-size="23.3333" font-weight="700" lengthAdjust="spacing" textLength="233.5191" x="1175.7404" y="456.2999">Node.js &#21518;&#31471; Express</text></g><!--cluster DB--><g class="cluster" data-qualified-name="DB" data-source-line="20" id="ent0016"><path d="M10,866.8167 C10,850.15 397.5,850.15 397.5,850.15 C397.5,850.15 785,850.15 785,866.8167 L785,1252.7167 C785,1269.3833 397.5,1269.3833 397.5,1269.3833 C397.5,1269.3833 10,1269.3833 10,1252.7167 L10,866.8167" fill="none" style="stroke:#181818;stroke-width:1.6667;"/><path d="M10,866.8167 C10,883.4833 397.5,883.4833 397.5,883.4833 C397.5,883.4833 785,883.4833 785,866.8167" fill="none" style="stroke:#181818;stroke-width:1.6667;"/><text fill="#000000" font-family="'Noto Sans CJK SC'" font-size="23.3333" font-weight="700" lengthAdjust="spacing" textLength="154.606" x="320.197" y="913.8832">MySQL &#25968;&#25454;&#24211;</text></g><!--entity Router--><g class="entity" data-qualified-name="Web.Router" data-source-line="5" id="ent0003"><rect fill="#F1F1F1" height="67.1199" rx="4.1667" ry="4.1667" style="stroke:#181818;stroke-width:0.8333;" width="159.1228" x="1312.1" y="245.45"/><text fill="#000000" font-family="'Noto Sans CJK SC'" font-size="23.3333" lengthAdjust="spacing" textLength="125.7895" x="1328.7667" y="289.1832">&#36335;&#30001; Router</text></g><!--entity Views--><g class="entity" data-qualified-name="Web.Views" data-source-line="6" id="ent0004"><rect fill="#F1F1F1" height="67.1199" rx="4.1667" ry="4.1667" style="stroke:#181818;stroke-width:0.8333;" width="147.6195" x="1687.85" y="76.6667"/><text fill="#000000" font-family="'Noto Sans CJK SC'" font-size="23.3333" lengthAdjust="spacing" textLength="114.2862" x="1704.5167" y="120.3999">&#39029;&#38754; Views</text></g><!--entity Client--><g class="entity" data-qualified-name="Web.Client" data-source-line="7" id="ent0005"><rect fill="#F1F1F1" height="67.1199" rx="4.1667" ry="4.1667" style="stroke:#181818;stroke-width:0.8333;" width="216.6159" x="1530.0333" y="245.45"/><text fill="#000000" font-family="'Noto Sans CJK SC'" font-size="23.3333" lengthAdjust="spacing" textLength="183.2826" x="1546.7" y="289.1832">&#25509;&#21475;&#23553;&#35013; client.js</text></g><!--entity I18n--><g class="entity" data-qualified-name="Web.I18n" data-source-line="8" id="ent0006"><rect fill="#F1F1F1" height="67.1199" rx="4.1667" ry="4.1667" style="stroke:#181818;stroke-width:0.8333;" width="155.1095" x="1805.7833" y="245.45"/><text fill="#000000" font-family="'Noto Sans CJK SC'" font-size="23.3333" lengthAdjust="spacing" textLength="121.7762" x="1822.45" y="289.1832">&#22269;&#38469;&#21270; i18n</text></g><!--entity Store--><g class="entity" data-qualified-name="Web.Store" data-source-line="9" id="ent0007"><rect fill="#F1F1F1" height="67.1199" rx="4.1667" ry="4.1667" style="stroke:#181818;stroke-width:0.8333;" width="240.9758" x="2019.5167" y="245.45"/><text fill="#000000" font-family="'Noto Sans CJK SC'" font-size="23.3333" lengthAdjust="spacing" textLength="207.6425" x="2036.1833" y="289.1832">&#30331;&#24405;&#29366;&#24577; authStore</text></g><!--entity Auth--><g class="entity" data-qualified-name="Api.Auth" data-source-line="12" id="ent0009"><rect fill="#F1F1F1" height="67.1199" rx="4.1667" ry="4.1667" style="stroke:#181818;stroke-width:0.8333;" width="202.1726" x="1290.5833" y="963.4833"/><text fill="#000000" font-family="'Noto Sans CJK SC'" font-size="23.3333" lengthAdjust="spacing" textLength="168.8393" x="1307.25" y="1007.2165">&#35748;&#35777;&#20013;&#38388;&#20214; JWT</text></g><!--entity Role--><g class="entity" data-qualified-name="Api.Role" data-source-line="13" id="ent0010"><rect fill="#F1F1F1" height="67.1199" rx="4.1667" ry="4.1667" style="stroke:#181818;stroke-width:0.8333;" width="196.666" x="865" y="659.6833"/><text fill="#000000" font-family="'Noto Sans CJK SC'" font-size="23.3333" lengthAdjust="spacing" textLength="163.3326" x="881.6667" y="703.4165">&#35282;&#33394;&#26435;&#38480;&#20013;&#38388;&#20214;</text></g><!--entity AuthRoute--><g class="entity" data-qualified-name="Api.AuthRoute" data-source-line="14" id="ent0011"><rect fill="#F1F1F1" height="67.1199" rx="4.1667" ry="4.1667" style="stroke:#181818;stroke-width:0.8333;" width="126.6663" x="1120" y="659.6833"/><text fill="#000000" font-family="'Noto Sans CJK SC'" font-size="23.3333" lengthAdjust="spacing" textLength="93.3329" x="1136.6667" y="703.4165">&#35748;&#35777;&#25509;&#21475;</text></g><!--entity BikeRoute--><g class="entity" data-qualified-name="Api.BikeRoute" data-source-line="15" id="ent0012"><rect fill="#F1F1F1" height="67.1199" rx="4.1667" ry="4.1667" style="stroke:#181818;stroke-width:0.8333;" width="182.4793" x="1537.1" y="659.6833"/><text fill="#000000" font-family="'Noto Sans CJK SC'" font-size="23.3333" lengthAdjust="spacing" textLength="149.146" x="1553.7667" y="703.4165">&#36710;&#36742;/&#31449;&#28857;&#25509;&#21475;</text></g><!--entity OrderRoute--><g class="entity" data-qualified-name="Api.OrderRoute" data-source-line="16" id="ent0013"><rect fill="#F1F1F1" height="67.1199" rx="4.1667" ry="4.1667" style="stroke:#181818;stroke-width:0.8333;" width="173.3327" x="1305" y="659.6833"/><text fill="#000000" font-family="'Noto Sans CJK SC'" font-size="23.3333" lengthAdjust="spacing" textLength="139.9994" x="1321.6667" y="703.4165">&#35746;&#21333;&#31199;&#36824;&#25509;&#21475;</text></g><!--entity AdminRoute--><g class="entity" data-qualified-name="Api.AdminRoute" data-source-line="17" id="ent0014"><rect fill="#F1F1F1" height="67.1199" rx="4.1667" ry="4.1667" style="stroke:#181818;stroke-width:0.8333;" width="238.2924" x="864.1833" y="490.9"/><text fill="#000000" font-family="'Noto Sans CJK SC'" font-size="23.3333" lengthAdjust="spacing" textLength="204.9591" x="880.85" y="534.6332">&#32500;&#25252;/&#20844;&#21578;/&#32479;&#35745;&#25509;&#21475;</text></g><!--entity Response--><g class="entity" data-qualified-name="Api.Response" data-source-line="18" id="ent0015"><rect fill="#F1F1F1" height="67.1199" rx="4.1667" ry="4.1667" style="stroke:#181818;stroke-width:0.8333;" width="243.3324" x="1160" y="490.9"/><text fill="#000000" font-family="'Noto Sans CJK SC'" font-size="23.3333" lengthAdjust="spacing" textLength="209.9991" x="1176.6667" y="534.6332">&#32479;&#19968;&#21709;&#24212;&#19982;&#24322;&#24120;&#22788;&#29702;</text></g><!--entity users--><g class="entity" data-qualified-name="DB.users" data-source-line="21" id="ent0017"><ellipse cx="125.0082" cy="980.15" fill="#F1F1F1" rx="20" ry="20" style="stroke:#181818;stroke-width:0.8333;"/><line style="stroke:#181818;stroke-width:0.8333;" x1="105.0082" x2="145.0082" y1="1003.4833" y2="1003.4833"/><text fill="#000000" font-family="'Noto Sans CJK SC'" font-size="23.3333" lengthAdjust="spacing" textLength="57.9831" x="96.0167" y="1033.8832">users</text></g><!--entity bikes--><g class="entity" data-qualified-name="DB.bikes" data-source-line="22" id="ent0018"><ellipse cx="241.6649" cy="980.15" fill="#F1F1F1" rx="20" ry="20" style="stroke:#181818;stroke-width:0.8333;"/><line style="stroke:#181818;stroke-width:0.8333;" x1="221.6649" x2="261.6649" y1="1003.4833" y2="1003.4833"/><text fill="#000000" font-family="'Noto Sans CJK SC'" font-size="23.3333" lengthAdjust="spacing" textLength="57.5631" x="212.8833" y="1033.8832">bikes</text></g><!--entity stations--><g class="entity" data-qualified-name="DB.stations" data-source-line="23" id="ent0019"><ellipse cx="371.6632" cy="980.15" fill="#F1F1F1" rx="20" ry="20" style="stroke:#181818;stroke-width:0.8333;"/><line style="stroke:#181818;stroke-width:0.8333;" x1="351.6632" x2="391.6632" y1="1003.4833" y2="1003.4833"/><text fill="#000000" font-family="'Noto Sans CJK SC'" font-size="23.3333" lengthAdjust="spacing" textLength="87.3597" x="327.9833" y="1033.8832">stations</text></g><!--entity rental_orders--><g class="entity" data-qualified-name="DB.rental_orders" data-source-line="24" id="ent0020"><ellipse cx="125.0047" cy="1168.9333" fill="#F1F1F1" rx="20" ry="20" style="stroke:#181818;stroke-width:0.8333;"/><line style="stroke:#181818;stroke-width:0.8333;" x1="105.0047" x2="145.0047" y1="1192.2667" y2="1192.2667"/><text fill="#000000" font-family="'Noto Sans CJK SC'" font-size="23.3333" lengthAdjust="spacing" textLength="148.3761" x="50.8167" y="1222.6665">rental_orders</text></g><!--entity maintenance_records--><g class="entity" data-qualified-name="DB.maintenance_records" data-source-line="25" id="ent0021"><ellipse cx="376.6745" cy="1168.9333" fill="#F1F1F1" rx="20" ry="20" style="stroke:#181818;stroke-width:0.8333;"/><line style="stroke:#181818;stroke-width:0.8333;" x1="356.6745" x2="396.6745" y1="1192.2667" y2="1192.2667"/><text fill="#000000" font-family="'Noto Sans CJK SC'" font-size="23.3333" lengthAdjust="spacing" textLength="239.049" x="257.15" y="1222.6665">maintenance_records</text></g><!--entity announcements--><g class="entity" data-qualified-name="DB.announcements" data-source-line="26" id="ent0022"><ellipse cx="643.3413" cy="1168.9333" fill="#F1F1F1" rx="20" ry="20" style="stroke:#181818;stroke-width:0.8333;"/><line style="stroke:#181818;stroke-width:0.8333;" x1="623.3413" x2="663.3413" y1="1192.2667" y2="1192.2667"/><text fill="#000000" font-family="'Noto Sans CJK SC'" font-size="23.3333" lengthAdjust="spacing" textLength="177.4493" x="554.6167" y="1222.6665">announcements</text></g><!--link Views to Router--><g class="link" data-entity-1="ent0004" data-entity-2="ent0003" data-link-type="dependency" data-source-line="28" id="lnk23"><path d="M1688.5667,144.5833 C1623.7,173.5833 1538.5622,211.6513 1473.7456,240.6346" fill="none" id="Views-to-Router" style="stroke:#181818;stroke-width:1.6667;"/><polygon fill="#181818" points="1464.6167,244.7167,1481.0314,244.6795,1472.2241,241.3149,1475.5886,232.5076,1464.6167,244.7167" style="stroke:#181818;stroke-width:1.6667;"/></g><!--link Views to Client--><g class="link" data-entity-1="ent0004" data-entity-2="ent0005" data-link-type="dependency" data-source-line="29" id="lnk24"><path d="M1737.3,144.5833 C1715.6833,173.5833 1690.2256,207.7151 1668.6256,236.6984" fill="none" id="Views-to-Client" style="stroke:#181818;stroke-width:1.6667;"/><polygon fill="#181818" points="1662.65,244.7167,1676.9589,236.6731,1667.6297,238.0348,1666.268,228.7056,1662.65,244.7167" style="stroke:#181818;stroke-width:1.6667;"/></g><!--link Views to I18n--><g class="link" data-entity-1="ent0004" data-entity-2="ent0006" data-link-type="dependency" data-source-line="30" id="lnk25"><path d="M1785.7,144.5833 C1807.0333,173.5833 1832.1085,207.6775 1853.4251,236.6609" fill="none" id="Views-to-I18n" style="stroke:#181818;stroke-width:1.6667;"/><polygon fill="#181818" points="1859.35,244.7167,1855.8332,228.6831,1854.4126,238.0035,1845.0922,236.5829,1859.35,244.7167" style="stroke:#181818;stroke-width:1.6667;"/></g><!--link Views to Store--><g class="link" data-entity-1="ent0004" data-entity-2="ent0007" data-link-type="dependency" data-source-line="31" id="lnk26"><path d="M1835.9667,144.3833 C1902.25,173.3667 1989.6377,211.5935 2056.071,240.6435" fill="none" id="Views-to-Store" style="stroke:#181818;stroke-width:1.6667;"/><polygon fill="#181818" points="2065.2333,244.65,2054.1609,232.532,2057.5981,241.3112,2048.8189,244.7485,2065.2333,244.65" style="stroke:#181818;stroke-width:1.6667;"/></g><!--link Client to AuthRoute--><g class="link" data-entity-1="ent0005" data-entity-2="ent0011" data-link-type="dependency" data-source-line="32" id="lnk27"><path d="M1605.8833,313.3667 C1581.0167,339.2 1546.5833,376.75 1520,412.5667 C1474.9167,473.3 1486.5333,505.9667 1431.6667,558.0167 C1378.05,608.9 1310.54,642.45 1256.59,664.5" fill="none" id="Client-to-AuthRoute" style="stroke:#181818;stroke-width:1.6667;"/><polygon fill="#181818" points="1247.3333,668.2833,1263.7406,668.7795,1255.0472,665.1306,1258.6962,656.4372,1247.3333,668.2833" style="stroke:#181818;stroke-width:1.6667;"/><text fill="#000000" font-family="'Noto Sans CJK SC'" font-size="21.6667" lengthAdjust="spacing" textLength="117.1517" x="1521.6667" y="534.6">REST/JSON</text></g><!--link Client to BikeRoute--><g class="link" data-entity-1="ent0005" data-entity-2="ent0012" data-link-type="dependency" data-source-line="33" id="lnk28"><path d="M1643.1667,313.1833 C1650.2,365.05 1661.5333,469.6833 1653.3333,558.0167 C1650.1,592.7833 1644.4456,622.244 1638.3956,649.1273" fill="none" id="Client-to-BikeRoute" style="stroke:#181818;stroke-width:1.6667;"/><polygon fill="#181818" points="1636.2,658.8833,1645.9973,645.713,1638.0296,650.7533,1632.9893,642.7856,1636.2,658.8833" style="stroke:#181818;stroke-width:1.6667;"/><text fill="#000000" font-family="'Noto Sans CJK SC'" font-size="21.6667" lengthAdjust="spacing" textLength="117.1517" x="1656.6667" y="534.6">REST/JSON</text></g><!--link Client to OrderRoute--><g class="link" data-entity-1="ent0005" data-entity-2="ent0013" data-link-type="dependency" data-source-line="34" id="lnk29"><path d="M1695.0167,313.15 C1728.9833,336.0833 1769.1833,370.2333 1788.3333,412.5667 C1814.9667,471.4667 1826.05,505.5167 1788.3333,558.0167 C1778.95,571.0833 1602.4741,626.9913 1488.5574,662.058" fill="none" id="Client-to-OrderRoute" style="stroke:#181818;stroke-width:1.6667;"/><polygon fill="#181818" points="1479,665,1495.2975,666.9586,1486.9645,662.5483,1491.3748,654.2153,1479,665" style="stroke:#181818;stroke-width:1.6667;"/><text fill="#000000" font-family="'Noto Sans CJK SC'" font-size="21.6667" lengthAdjust="spacing" textLength="117.1517" x="1813.3333" y="534.6">REST/JSON</text></g><!--link Client to AdminRoute--><g class="link" data-entity-1="ent0005" data-entity-2="ent0014" data-link-type="dependency" data-source-line="35" id="lnk30"><path d="M1587.15,313.35 C1561.8833,327.85 1530.3833,343.6333 1500,352.5667 C1438.6167,370.6167 1419.9333,356.4333 1356.6667,365.9 C1255.6667,381.0333 1224.85,370.7667 1131.6667,412.5667 C1088.6333,431.8833 1053.6225,458.7422 1025.2058,483.7589" fill="none" id="Client-to-AdminRoute" style="stroke:#181818;stroke-width:1.6667;"/><polygon fill="#181818" points="1017.7,490.3667,1033.3639,485.4589,1023.9549,484.8602,1024.5536,475.4511,1017.7,490.3667" style="stroke:#181818;stroke-width:1.6667;"/><text fill="#000000" font-family="'Noto Sans CJK SC'" font-size="21.6667" lengthAdjust="spacing" textLength="117.1517" x="1358.3333" y="392.7">REST/JSON</text></g><!--link AuthRoute to Auth--><g class="link" data-entity-1="ent0011" data-entity-2="ent0009" data-link-type="dependency" data-source-line="36" id="lnk31"><path d="M1206.0333,727.65 C1246.1,785.4333 1323.2524,896.6986 1363.3024,954.4653" fill="none" id="AuthRoute-to-Auth" style="stroke:#181818;stroke-width:1.6667;"/><polygon fill="#181818" points="1369,962.6833,1365.9322,946.5578,1364.252,955.8349,1354.9748,954.1546,1369,962.6833" style="stroke:#181818;stroke-width:1.6667;"/></g><!--link BikeRoute to Auth--><g class="link" data-entity-1="ent0012" data-entity-2="ent0009" data-link-type="dependency" data-source-line="37" id="lnk32"><path d="M1602.55,727.65 C1557.0333,785.4333 1469.1043,897.0609 1423.6043,954.8275" fill="none" id="BikeRoute-to-Auth" style="stroke:#181818;stroke-width:1.6667;"/><polygon fill="#181818" points="1417.4167,962.6833,1431.9353,955.0247,1422.573,956.1368,1421.4609,946.7746,1417.4167,962.6833" style="stroke:#181818;stroke-width:1.6667;"/></g><!--link OrderRoute to Auth--><g class="link" data-entity-1="ent0013" data-entity-2="ent0009" data-link-type="dependency" data-source-line="38" id="lnk33"><path d="M1391.6667,727.65 C1391.6667,785.4333 1391.6667,894.9167 1391.6667,952.6833" fill="none" id="OrderRoute-to-Auth" style="stroke:#181818;stroke-width:1.6667;"/><polygon fill="#181818" points="1391.6667,962.6833,1398.3333,947.6833,1391.6667,954.35,1385,947.6833,1391.6667,962.6833" style="stroke:#181818;stroke-width:1.6667;"/></g><!--link AdminRoute to Role--><g class="link" data-entity-1="ent0014" data-entity-2="ent0010" data-link-type="dependency" data-source-line="39" id="lnk34"><path d="M979.3833,558.8167 C975.8833,587.8167 971.9822,620.0555 968.4822,649.0388" fill="none" id="AdminRoute-to-Role" style="stroke:#181818;stroke-width:1.6667;"/><polygon fill="#181818" points="967.2833,658.9667,975.7002,644.8741,968.2824,650.6934,962.4631,643.2756,967.2833,658.9667" style="stroke:#181818;stroke-width:1.6667;"/></g><!--link AuthRoute to DB--><g class="link" data-entity-1="ent0011" data-entity-2="ent0016" data-link-type="dependency" data-source-line="40" id="lnk35"><path d="M1119.6833,717.0167 C1062.4833,736.9333 982.85,764.8833 951.6667,776.8167 C900.7833,796.2667 876.45,784.5667 838.3333,823.4833 C824.2208,837.8875 813.0167,855.6115 804.144,874.149 C799.7077,883.4177 795.8542,892.8898 792.5116,902.2521 C790.8402,906.9332 789.2966,911.5868 787.8716,916.1739 C787.1591,918.4674 786.4763,920.7442 785.822,922.9995 C785.6585,923.5633 785.4967,924.1258 785.3367,924.6869 C785.2567,924.9674 787.8983,915.6249 787.8192,915.9047" fill="none" id="AuthRoute-to-DB" style="stroke:#181818;stroke-width:1.6667;"/><polygon fill="#181818" points="785.098,925.5274,795.5949,912.9076,787.3657,917.5085,782.7647,909.2793,785.098,925.5274" style="stroke:#181818;stroke-width:1.6667;"/></g><!--link BikeRoute to DB--><g class="link" data-entity-1="ent0012" data-entity-2="ent0016" data-link-type="dependency" data-source-line="41" id="lnk36"><path d="M1536.7167,719.2167 C1526.5833,721.8167 1516.4167,724.4 1506.6667,726.8167 C1348.6667,765.9667 1311.2833,788.05 1150,810.15 C1115.6667,814.85 866.5,803.2833 838.3333,823.4833 C821.9417,835.2292 809.5802,851.6042 800.2581,869.6185 C795.597,878.6257 791.6958,888.0426 788.4305,897.4957 C787.6142,899.859 786.8376,902.2245 786.0989,904.5865 C785.7295,905.7675 788.222,897.363 787.8713,898.5414" fill="none" id="BikeRoute-to-DB" style="stroke:#181818;stroke-width:1.6667;"/><polygon fill="#181818" points="785.0188,908.126,795.6872,895.6508,787.3959,900.1389,782.9078,891.8475,785.0188,908.126" style="stroke:#181818;stroke-width:1.6667;"/></g><!--link OrderRoute to DB--><g class="link" data-entity-1="ent0013" data-entity-2="ent0016" data-link-type="dependency" data-source-line="42" id="lnk37"><path d="M1304.55,719.3833 C1294.6,721.9833 1284.6,724.5167 1275,726.8167 C1167.6167,752.4833 1137.5167,745.4333 1031.6667,776.8167 C992.7667,788.35 986,800.1833 946.6667,810.15 C923.15,816.1 857.4667,808.5667 838.3333,823.4833 C822.425,835.8708 810.3094,852.5708 801.0831,870.7107 C796.4699,879.7806 792.5791,889.2105 789.2977,898.6412 C788.4773,900.9989 787.6951,903.3567 786.9491,905.7089 C786.5762,906.885 786.2123,908.0597 785.8572,909.2323 C785.6797,909.8186 785.5044,910.4044 785.3313,910.9896 C785.2448,911.2821 787.9654,901.9765 787.8799,902.2688" fill="none" id="OrderRoute-to-DB" style="stroke:#181818;stroke-width:1.6667;"/><polygon fill="#181818" points="785.0733,911.8668,795.682,899.3409,787.4122,903.8685,782.8846,895.5987,785.0733,911.8668" style="stroke:#181818;stroke-width:1.6667;"/><text fill="#000000" font-family="'Noto Sans CJK SC'" font-size="21.6667" lengthAdjust="spacing" textLength="108.3335" x="1033.3333" y="803.6167">&#20107;&#21153;&#31199;&#36824;&#36710;</text></g><!--link AdminRoute to DB--><g class="link" data-entity-1="ent0014" data-entity-2="ent0016" data-link-type="dependency" data-source-line="43" id="lnk38"><path d="M933.4167,558.6833 C900.7333,582.6833 859.9333,618.25 836.6667,659.6833 C818.3542,692.2917 805.1188,729.1802 795.5706,766.2674 C790.7965,784.8111 786.9442,803.4044 783.84,821.5371 C782.2879,830.6035 780.9228,839.5548 779.7231,848.3272 C779.6481,848.8754 780.9093,839.5126 780.8356,840.0595" fill="none" id="AdminRoute-to-DB" style="stroke:#181818;stroke-width:1.6667;"/><polygon fill="#181818" points="779.5,849.9699,788.1104,835.9947,780.613,841.7112,774.8965,834.2138,779.5,849.9699" style="stroke:#181818;stroke-width:1.6667;"/></g><!--link Response to AuthRoute--><g class="link" data-entity-1="ent0015" data-entity-2="ent0011" data-link-type="dependency" data-source-line="44" id="lnk39"><path d="M1262.2333,558.8167 C1245,587.8167 1225.0608,621.388 1207.8274,650.3713" fill="none" id="Response-to-AuthRoute" style="stroke:#181818;stroke-width:1.6667;stroke-dasharray:11.6667,11.6667;"/><polygon fill="#181818" points="1202.7167,658.9667,1216.113,649.4808,1206.9756,651.8039,1204.6526,642.6665,1202.7167,658.9667" style="stroke:#181818;stroke-width:1.6667;"/></g><!--link Response to OrderRoute--><g class="link" data-entity-1="ent0015" data-entity-2="ent0013" data-link-type="dependency" data-source-line="45" id="lnk40"><path d="M1303.4,558.8167 C1322.6833,587.8167 1345.1807,621.6555 1364.4474,650.6388" fill="none" id="Response-to-OrderRoute" style="stroke:#181818;stroke-width:1.6667;stroke-dasharray:11.6667,11.6667;"/><polygon fill="#181818" points="1369.9833,658.9667,1367.2313,642.7842,1365.37,652.0268,1356.1275,650.1655,1369.9833,658.9667" style="stroke:#181818;stroke-width:1.6667;"/></g><?plantuml-src TPBVRX915CRlUOgJlJK56wCnlJ0HMgEeD7QRzh8PODIrx2pPdOqIqwHKQL8KH5jKOXf2Y_QY2jNKYY3wCWoxl8N3Rjb_eNTdl_djDtE-SxHrYMIHYcH8PoMOlNOvfBaAVeZq3Bsb49f0CWOXeL05H4GqYCNlWXWJF71AaRCAmOIAD9V1eE8KHUHH1eUS2eJRLu7jb8pZDgpe-0fSWXM9OW6G1giu2Sz3uBg0OFvg6tlVOKdHALOjo2xzrAZnSxH_m8tmKys2hChF3CkVsPj3Tf8t3mkGoaXS33-nwPZrvSVPf_weLc2ltuCqUvrOs1rU-26ZrcFzgb4y6sxc0UdqiKWLrUx5ga8RtiOJIXhpAu5LokFk5vvbLQpPBxZ9OmzstcgQxVoWystquNJGEuFuwhADyci2vD4xS-V7SF_5g5Pn-FEiUFHJNEqi73ihqW3N_sB-tOuOnpLZwxS7ZqhhU1hUEc2bgd5KD_zzzD2BQXghKt2ZTpeiDYEiy9MzBKQCNjriDRnlIiiIcVfRVT3PPBibrjqRTChipnRhT5ZpfL7Pjjl56aUrSUnfH54IQJpr-pdnmJqOLa-6fHRhxbhWVDHAcvjAD0U2hc5L4pn2adVf4pIAgCIjlPhA2vHPKyOz-Wva916A2I8flCR7pm7VCI94qVcPp0L-i16obXLcPcvCTjiLpZVJ5QmTT3_jBRCfIt362NEmj20kH-BYOi8BE0Ey271dTX7XZiT7k5TF7X9oBtCaZxsZUGpj5FZM-jtcem4lBWIS-4pdOD1znOeDUm_v2WUT-L-J7O5ms9EMNtQT_mC0?></g></svg>