<svg xmlns="http://www.w3.org/2000/svg" xmlns:xlink="http://www.w3.org/1999/xlink" contentStyleType="text/css" data-diagram-type="DESCRIPTION" height="1030px" preserveAspectRatio="none" style="width:785px;height:1030px;background:#FFFFFF;" version="1.1" viewBox="0 0 785 1030" width="785px" zoomAndPan="magnify"><?plantuml 1.2026.4beta2?><defs/><g><!--cluster Phone--><g class="cluster" data-qualified-name="Phone" data-source-line="3" id="ent0002"><polygon fill="none" points="76.6667,26.6667,93.3333,10,388.3333,10,388.3333,165.45,371.6667,182.1167,76.6667,182.1167,76.6667,26.6667" style="stroke:#181818;stroke-width:1.6667;"/><line style="stroke:#181818;stroke-width:1.6667;" x1="371.6667" x2="388.3333" y1="26.6667" y2="10"/><line style="stroke:#181818;stroke-width:1.6667;" x1="76.6667" x2="371.6667" y1="26.6667" y2="26.6667"/><line style="stroke:#181818;stroke-width:1.6667;" x1="371.6667" x2="371.6667" y1="26.6667" y2="182.1167"/><text fill="#000000" font-family="'Noto Sans CJK SC'" font-size="23.3333" font-weight="700" lengthAdjust="spacing" textLength="186.6659" x="132.5004" y="58.7332">&#29992;&#25143;&#31227;&#21160;&#31471;&#27983;&#35272;&#22120;</text></g><!--cluster WebServer--><g class="cluster" data-qualified-name="WebServer" data-source-line="6" id="ent0004"><polygon fill="none" points="26.6667,285.45,43.3333,268.7833,348.3333,268.7833,348.3333,424.25,331.6667,440.9167,26.6667,440.9167,26.6667,285.45" style="stroke:#181818;stroke-width:1.6667;"/><line style="stroke:#181818;stroke-width:1.6667;" x1="331.6667" x2="348.3333" y1="285.45" y2="268.7833"/><line style="stroke:#181818;stroke-width:1.6667;" x1="26.6667" x2="331.6667" y1="285.45" y2="285.45"/><line style="stroke:#181818;stroke-width:1.6667;" x1="331.6667" x2="331.6667" y1="285.45" y2="440.9167"/><text fill="#000000" font-family="'Noto Sans CJK SC'" font-size="23.3333" font-weight="700" lengthAdjust="spacing" textLength="195.2292" x="83.2187" y="317.5165">Web &#21069;&#31471;&#36816;&#34892;&#29615;&#22659;</text></g><!--cluster NodeServer--><g class="cluster" data-qualified-name="NodeServer" data-source-line="9" id="ent0006"><polygon fill="none" points="390,285.45,406.6667,268.7833,743.3333,268.7833,743.3333,664.7,726.6667,681.3667,390,681.3667,390,285.45" style="stroke:#181818;stroke-width:1.6667;"/><line style="stroke:#181818;stroke-width:1.6667;" x1="726.6667" x2="743.3333" y1="285.45" y2="268.7833"/><line style="stroke:#181818;stroke-width:1.6667;" x1="390" x2="726.6667" y1="285.45" y2="285.45"/><line style="stroke:#181818;stroke-width:1.6667;" x1="726.6667" x2="726.6667" y1="285.45" y2="681.3667"/><text fill="#000000" font-family="'Noto Sans CJK SC'" font-size="23.3333" font-weight="700" lengthAdjust="spacing" textLength="185.5693" x="467.2154" y="317.5165">Node.js &#24212;&#29992;&#26381;&#21153;</text></g><!--cluster Mysql--><g class="cluster" data-qualified-name="Mysql" data-source-line="13" id="ent0009"><path d="M371.6667,816.3667 C371.6667,799.7 535,799.7 535,799.7 C535,799.7 698.3333,799.7 698.3333,816.3667 L698.3333,971.8167 C698.3333,988.4833 535,988.4833 535,988.4833 C535,988.4833 371.6667,988.4833 371.6667,971.8167 L371.6667,816.3667" fill="none" style="stroke:#181818;stroke-width:1.6667;"/><path d="M371.6667,816.3667 C371.6667,833.0333 535,833.0333 535,833.0333 C535,833.0333 698.3333,833.0333 698.3333,816.3667" fill="none" style="stroke:#181818;stroke-width:1.6667;"/><text fill="#000000" font-family="'Noto Sans CJK SC'" font-size="23.3333" font-weight="700" lengthAdjust="spacing" textLength="201.2725" x="434.3638" y="863.4332">MySQL &#25968;&#25454;&#24211;&#26381;&#21153;</text></g><!--entity H5--><g class="entity" data-qualified-name="Phone.H5" data-source-line="4" id="ent0003"><rect fill="#F1F1F1" height="72.1199" rx="4.1667" ry="4.1667" style="stroke:#181818;stroke-width:0.8333;" width="131.8297" x="152.4167" y="83.3333"/><polygon fill="#F1F1F1" points="255.913,91.6667,255.913,115,275.913,115,275.913,101.6667,265.913,91.6667,255.913,91.6667" style="stroke:#181818;stroke-width:0.8333;"/><line style="stroke:#181818;stroke-width:0.8333;" x1="265.913" x2="265.913" y1="91.6667" y2="101.6667"/><line style="stroke:#181818;stroke-width:0.8333;" x1="275.913" x2="265.913" y1="101.6667" y2="101.6667"/><text fill="#000000" font-family="'Noto Sans CJK SC'" font-size="23.3333" lengthAdjust="spacing" textLength="81.8297" x="169.0833" y="132.0665">H5 &#39029;&#38754;</text></g><!--entity Dist--><g class="entity" data-qualified-name="WebServer.Dist" data-source-line="7" id="ent0005"><rect fill="#F1F1F1" height="72.1199" rx="4.1667" ry="4.1667" style="stroke:#181818;stroke-width:0.8333;" width="202.016" x="117.3333" y="342.1167"/><polygon fill="#F1F1F1" points="291.016,350.45,291.016,373.7833,311.016,373.7833,311.016,360.45,301.016,350.45,291.016,350.45" style="stroke:#181818;stroke-width:0.8333;"/><line style="stroke:#181818;stroke-width:0.8333;" x1="301.016" x2="301.016" y1="350.45" y2="360.45"/><line style="stroke:#181818;stroke-width:0.8333;" x1="311.016" x2="301.016" y1="360.45" y2="360.45"/><text fill="#000000" font-family="'Noto Sans CJK SC'" font-size="23.3333" lengthAdjust="spacing" textLength="152.016" x="134" y="390.8499">Vue3 &#26500;&#24314;&#20135;&#29289;</text></g><!--entity Api--><g class="entity" data-qualified-name="NodeServer.Api" data-source-line="10" id="ent0007"><rect fill="#F1F1F1" height="72.1199" rx="4.1667" ry="4.1667" style="stroke:#181818;stroke-width:0.8333;" width="236.3393" x="416.8333" y="582.5833"/><polygon fill="#F1F1F1" points="624.8393,590.9167,624.8393,614.25,644.8393,614.25,644.8393,600.9167,634.8393,590.9167,624.8393,590.9167" style="stroke:#181818;stroke-width:0.8333;"/><line style="stroke:#181818;stroke-width:0.8333;" x1="634.8393" x2="634.8393" y1="590.9167" y2="600.9167"/><line style="stroke:#181818;stroke-width:0.8333;" x1="644.8393" x2="634.8393" y1="600.9167" y2="600.9167"/><text fill="#000000" font-family="'Noto Sans CJK SC'" font-size="23.3333" lengthAdjust="spacing" textLength="186.3393" x="433.5" y="631.3165">Express REST API</text></g><!--entity Env--><g class="entity" data-qualified-name="NodeServer.Env" data-source-line="11" id="ent0008"><rect fill="#F1F1F1" height="72.1199" rx="4.1667" ry="4.1667" style="stroke:#181818;stroke-width:0.8333;" width="147.6963" x="416.15" y="342.1167"/><polygon fill="#F1F1F1" points="535.5129,350.45,535.5129,373.7833,555.5129,373.7833,555.5129,360.45,545.5129,350.45,535.5129,350.45" style="stroke:#181818;stroke-width:0.8333;"/><line style="stroke:#181818;stroke-width:0.8333;" x1="545.5129" x2="545.5129" y1="350.45" y2="360.45"/><line style="stroke:#181818;stroke-width:0.8333;" x1="555.5129" x2="545.5129" y1="360.45" y2="360.45"/><text fill="#000000" font-family="'Noto Sans CJK SC'" font-size="23.3333" lengthAdjust="spacing" textLength="97.6963" x="432.8167" y="390.8499">.env &#37197;&#32622;</text></g><!--entity Schema--><g class="entity" data-qualified-name="Mysql.Schema" data-source-line="14" id="ent0010"><rect fill="#F1F1F1" height="72.1199" rx="4.1667" ry="4.1667" style="stroke:#181818;stroke-width:0.8333;" width="271.8058" x="399.1" y="889.7"/><polygon fill="#F1F1F1" points="642.5725,898.0333,642.5725,921.3667,662.5725,921.3667,662.5725,908.0333,652.5725,898.0333,642.5725,898.0333" style="stroke:#181818;stroke-width:0.8333;"/><line style="stroke:#181818;stroke-width:0.8333;" x1="652.5725" x2="652.5725" y1="898.0333" y2="908.0333"/><line style="stroke:#181818;stroke-width:0.8333;" x1="662.5725" x2="652.5725" y1="908.0333" y2="908.0333"/><text fill="#000000" font-family="'Noto Sans CJK SC'" font-size="23.3333" lengthAdjust="spacing" textLength="221.8058" x="415.7667" y="938.4332">student_bike_rental</text></g><!--link H5 to Dist--><g class="link" data-entity-1="ent0003" data-entity-2="ent0005" data-link-type="dependency" data-source-line="16" id="lnk11"><path d="M218.3333,156.05 C218.3333,204.9667 218.3333,283.2667 218.3333,331.95" fill="none" id="H5-to-Dist" style="stroke:#181818;stroke-width:1.6667;"/><polygon fill="#181818" points="218.3333,341.95,225,326.95,218.3333,333.6167,211.6667,326.95,218.3333,341.95" style="stroke:#181818;stroke-width:1.6667;"/><text fill="#000000" font-family="'Noto Sans CJK SC'" font-size="21.6667" lengthAdjust="spacing" textLength="180.4834" x="220" y="235.5834">HTTPS/HTTP &#35775;&#38382;</text></g><!--link Dist to Api--><g class="link" data-entity-1="ent0005" data-entity-2="ent0007" data-link-type="dependency" data-source-line="17" id="lnk12"><path d="M229.65,414.8833 C242.4167,449.2833 266.3833,501.0667 303.3333,532.5833 C335.4167,559.9333 367.5935,575.6306 406.7602,588.4139" fill="none" id="Dist-to-Api" style="stroke:#181818;stroke-width:1.6667;"/><polygon fill="#181818" points="416.2667,591.5167,404.0755,580.5249,408.3446,588.931,399.9385,593.2002,416.2667,591.5167" style="stroke:#181818;stroke-width:1.6667;"/><text fill="#000000" font-family="'Noto Sans CJK SC'" font-size="21.6667" lengthAdjust="spacing" textLength="113.5117" x="341.6817" y="494.3834">REST JSON</text><text fill="#000000" font-family="'Noto Sans CJK SC'" font-size="21.6667" lengthAdjust="spacing" textLength="186.8752" x="305" y="525.7567">&#25509;&#21475;&#22320;&#22336;&#33073;&#25935;&#20026; ***</text></g><!--link Api to Schema--><g class="link" data-entity-1="ent0007" data-entity-2="ent0010" data-link-type="dependency" data-source-line="18" id="lnk13"><path d="M535,655.15 C535,713.6 535,820.7 535,879.1833" fill="none" id="Api-to-Schema" style="stroke:#181818;stroke-width:1.6667;"/><polygon fill="#181818" points="535,889.1833,541.6667,874.1833,535,880.85,528.3333,874.1833,535,889.1833" style="stroke:#181818;stroke-width:1.6667;"/><text fill="#000000" font-family="'Noto Sans CJK SC'" font-size="21.6667" lengthAdjust="spacing" textLength="121.2901" x="580.2925" y="734.8334">mysql2 &#36830;&#25509;</text><text fill="#000000" font-family="'Noto Sans CJK SC'" font-size="21.6667" lengthAdjust="spacing" textLength="208.5419" x="536.6667" y="766.2067">&#25968;&#25454;&#24211;&#20027;&#26426;&#33073;&#25935;&#20026; ***</text></g><!--link Env to Api--><g class="link" data-entity-1="ent0008" data-entity-2="ent0007" data-link-type="dependency" data-source-line="19" id="lnk14"><path d="M496.6333,414.8333 C505.15,459.6667 517.9531,527.1085 526.4698,572.0085" fill="none" id="Env-to-Api" style="stroke:#181818;stroke-width:1.6667;stroke-dasharray:11.6667,11.6667;"/><polygon fill="#181818" points="528.3333,581.8333,532.0878,565.8537,526.7804,573.646,518.9881,568.3385,528.3333,581.8333" style="stroke:#181818;stroke-width:1.6667;"/><text fill="#000000" font-family="'Noto Sans CJK SC'" font-size="21.6667" lengthAdjust="spacing" textLength="238.5936" x="518.3333" y="510.2167">&#31471;&#21475;&#12289;JWT&#12289;&#25968;&#25454;&#24211;&#37197;&#32622;</text></g><?plantuml-src RP7FQnf15CVl-rSyF0gnQKDwwA4GhCNQQcrNwYKWeqvm4vqrEwCqb49AKr296gXI2YPWGj1IqEGG4bQAVqoTtVM_oDknIPlGosEPz_d-c5c-PR0oiKW9ycK37ZvUrlZV4xf1AaNnt6GYGKeK0WbJcA0JnY4SUmbwEA0nCu_dRcVer2xTmKGsXkxFiNFHzWOr-NqO0C8XMJ0PXGyQ0B64iK5o0WBHLPZtB-Q7nug8hceV_pYbQHPalOactlJ0w--xhR4y_gmeNEdKgbBhdjUx2bq1vsXFJkoPFN3hFnJzpE3YrZM1CxJ9GTeTlsglAHjzHVcB_vf6tfSjoZcyZUWfM4k-KFHQsRW3XIYhmlnBq_qrKli8gs9adWYI9HnZuplwcrVWTC-SvaZQN__9ZU_mxUAzI2ugUSf49cjiqOo5NwIeM3rNe2M2nlXeIqjFrStW2KHJgQJ-m9_WZQRpRoDDBNm2UoAWgiVqrubrvhHEPVj4zixauQwtT-vqsxCh6uB1eEQZlcGHWggIt-mHUDCZ5A7oflpiQkBqxBjYl2-4GZTv-CymvFVkfrWwXVDMkNYWQm00?></g></svg>